# xmcd
#
# Track frame offsets: 
#        150
#        20744
#        44778
#        63832
#        86734
#        106802
#        124540
#        140750
#        157366
#
# Disc length: 2353 seconds
#
# Revision: 0
# Processed by: cddbd v1.5.2PL0 Copyright (c) Steve Scherf et al.
# Submitted via: ExactAudioCopy v1.0b4
#
DISCID=82092f09
DTITLE=Willie James Lyons - Chicago Woman (LP)
DYEAR=1979
DGENRE=Blues
TTITLE0=I've Got Trouble On My Mind
TTITLE1=Chicago Women
TTITLE2=Please Love Me
TTITLE3=Groovin' In Paris
TTITLE4=Rock Me Baby
TTITLE5=Reconsider Baby
TTITLE6=Hoochie Coochie Man
TTITLE7=Big Boss Man
TTITLE8=Cut You Loose
EXTD=
EXTT0=
EXTT1=
EXTT2=
EXTT3=
EXTT4=
EXTT5=
EXTT6=
EXTT7=
EXTT8=
PLAYORDER=
